<svg width="19" height="18" viewBox="0 0 19 18" fill="none" xmlns="http://www.w3.org/2000/svg">
<g id="Linkedin">
<path id="Vector" d="M18.992 18.0002V17.9994H18.9965V11.3979C18.9965 8.16841 18.3012 5.68066 14.5257 5.68066C12.7107 5.68066 11.4927 6.67666 10.9955 7.62091H10.943V5.98216H7.36322V17.9994H11.0907V12.0489C11.0907 10.4822 11.3877 8.96716 13.328 8.96716C15.2397 8.96716 15.2682 10.7552 15.2682 12.1494V18.0002H18.992Z" fill="white"/>
<path id="Vector_2" d="M1.29349 5.98291H5.02549V18.0002H1.29349V5.98291Z" fill="white"/>
<path id="Vector_3" d="M3.15799 0C1.96474 0 0.99649 0.96825 0.99649 2.1615C0.99649 3.35475 1.96474 4.34325 3.15799 4.34325C4.35124 4.34325 5.31949 3.35475 5.31949 2.1615C5.31874 0.96825 4.35049 0 3.15799 0V0Z" fill="white"/>
</g>
</svg>
